<svg width="18" height="18" viewBox="0 0 18 18" fill="none" xmlns="http://www.w3.org/2000/svg">
    <path d="M6.375 16.5C6.375 16.7984 6.49353 17.0845 6.7045 17.2955C6.91548 17.5065 7.20163 17.625 7.5 17.625H10.5C10.7984 17.625 11.0845 17.5065 11.2955 17.2955C11.5065 17.0845 11.625 16.7984 11.625 16.5V11.8125C11.625 11.7628 11.6448 11.7151 11.6799 11.6799C11.7151 11.6448 11.7628 11.625 11.8125 11.625H16.5C16.7984 11.625 17.0845 11.5065 17.2955 11.2955C17.5065 11.0845 17.625 10.7984 17.625 10.5V7.5C17.625 7.20163 17.5065 6.91548 17.2955 6.7045C17.0845 6.49353 16.7984 6.375 16.5 6.375H11.8125C11.7628 6.375 11.7151 6.35525 11.6799 6.32008C11.6448 6.28492 11.625 6.23723 11.625 6.1875V1.5C11.625 1.20163 11.5065 0.915483 11.2955 0.704505C11.0845 0.493526 10.7984 0.375 10.5 0.375H7.5C7.20163 0.375 6.91548 0.493526 6.7045 0.704505C6.49353 0.915483 6.375 1.20163 6.375 1.5V6.1875C6.375 6.23723 6.35525 6.28492 6.32008 6.32008C6.28492 6.35525 6.23723 6.375 6.1875 6.375H1.5C1.20163 6.375 0.915483 6.49353 0.704505 6.7045C0.493526 6.91548 0.375 7.20163 0.375 7.5V10.5C0.375 10.7984 0.493526 11.0845 0.704505 11.2955C0.915483 11.5065 1.20163 11.625 1.5 11.625H6.1875C6.23723 11.625 6.28492 11.6448 6.32008 11.6799C6.35525 11.7151 6.375 11.7628 6.375 11.8125V16.5Z" fill="white"/>
</svg>