<svg width="18" height="18" viewBox="0 0 18 18" fill="none" xmlns="http://www.w3.org/2000/svg">
    <path d="M11.3141 2.9547C11.2791 2.91942 11.2375 2.8914 11.1917 2.87224C11.1458 2.85308 11.0967 2.84316 11.047 2.84305C10.9974 2.84306 10.9482 2.85286 10.9024 2.87189C10.8566 2.89092 10.815 2.9188 10.7799 2.95395L2.54025 11.1959C2.46954 11.2666 2.42981 11.3626 2.42981 11.4626C2.42981 11.5626 2.46954 11.6585 2.54025 11.7293L6.27308 15.4621C6.34382 15.5328 6.43974 15.5725 6.53976 15.5725C6.63979 15.5725 6.73571 15.5328 6.80645 15.4621L15.0424 7.22618C15.1128 7.15548 15.1524 7.05971 15.1524 6.95987C15.1524 6.86004 15.1128 6.76427 15.0424 6.69357L11.3141 2.9547Z" fill="white"/>
    <path d="M1.78042 12.6217C1.73298 12.5744 1.6738 12.5406 1.60896 12.5238C1.54412 12.5069 1.47597 12.5077 1.41151 12.5259C1.34695 12.544 1.28839 12.579 1.24184 12.6272C1.1953 12.6755 1.16246 12.7353 1.14672 12.8005L0.0105724 17.5359C-0.00442133 17.5987 -0.00307029 17.6642 0.0144964 17.7263C0.0320631 17.7884 0.0652584 17.8449 0.110909 17.8905C0.156854 17.9356 0.213439 17.9684 0.275421 17.9858C0.337403 18.0032 0.402776 18.0047 0.465483 17.9901L5.19715 16.8585C5.2624 16.8429 5.3223 16.8101 5.37068 16.7636C5.41906 16.7172 5.45417 16.6586 5.47239 16.5941C5.49061 16.5295 5.49128 16.4612 5.47432 16.3963C5.45737 16.3314 5.42341 16.2722 5.37595 16.2248L1.78042 12.6217Z" fill="white"/>
    <path d="M17.4496 2.15344L15.848 0.551074C15.4944 0.198189 15.0152 0 14.5157 0C14.0161 0 13.537 0.198189 13.1834 0.551074L12.1136 1.62007C12.0429 1.69081 12.0032 1.78674 12.0032 1.88676C12.0032 1.98678 12.0429 2.08271 12.1136 2.15344L15.848 5.88703C15.9187 5.95774 16.0146 5.99747 16.1146 5.99747C16.2147 5.99747 16.3106 5.95774 16.3813 5.88703L17.4496 4.81652C17.802 4.46299 17.9999 3.98417 17.9999 3.48498C17.9999 2.9858 17.802 2.50697 17.4496 2.15344Z" fill="white"/>
</svg>