<svg width="20" height="20" viewBox="0 0 20 20" fill="none" xmlns="http://www.w3.org/2000/svg">
    <path d="M16.25 6.25H3.75004C3.63953 6.25 3.53355 6.2939 3.45541 6.37204C3.37727 6.45018 3.33337 6.55616 3.33337 6.66667V18.3333C3.33337 18.7754 3.50897 19.1993 3.82153 19.5118C4.13409 19.8244 4.55801 20 5.00004 20H15C15.4421 20 15.866 19.8244 16.1786 19.5118C16.4911 19.1993 16.6667 18.7754 16.6667 18.3333V6.66667C16.6667 6.55616 16.6228 6.45018 16.5447 6.37204C16.4665 6.2939 16.3605 6.25 16.25 6.25ZM8.54171 17.0833C8.54171 17.2491 8.47586 17.4081 8.35865 17.5253C8.24144 17.6425 8.08247 17.7083 7.91671 17.7083C7.75095 17.7083 7.59198 17.6425 7.47477 17.5253C7.35756 17.4081 7.29171 17.2491 7.29171 17.0833V9.58333C7.29171 9.41757 7.35756 9.2586 7.47477 9.14139C7.59198 9.02418 7.75095 8.95833 7.91671 8.95833C8.08247 8.95833 8.24144 9.02418 8.35865 9.14139C8.47586 9.2586 8.54171 9.41757 8.54171 9.58333V17.0833ZM12.7084 17.0833C12.7084 17.2491 12.6425 17.4081 12.5253 17.5253C12.4081 17.6425 12.2491 17.7083 12.0834 17.7083C11.9176 17.7083 11.7586 17.6425 11.6414 17.5253C11.5242 17.4081 11.4584 17.2491 11.4584 17.0833V9.58333C11.4584 9.41757 11.5242 9.2586 11.6414 9.14139C11.7586 9.02418 11.9176 8.95833 12.0834 8.95833C12.2491 8.95833 12.4081 9.02418 12.5253 9.14139C12.6425 9.2586 12.7084 9.41757 12.7084 9.58333V17.0833Z" fill="white"/>
    <path d="M18.3334 3.33333H14.375C14.3198 3.33333 14.2668 3.31138 14.2277 3.27231C14.1887 3.23324 14.1667 3.18025 14.1667 3.125V2.08333C14.1667 1.5308 13.9472 1.0009 13.5565 0.610194C13.1658 0.219493 12.6359 0 12.0834 0L7.91671 0C7.36417 0 6.83427 0.219493 6.44357 0.610194C6.05287 1.0009 5.83337 1.5308 5.83337 2.08333V3.125C5.83337 3.18025 5.81142 3.23324 5.77235 3.27231C5.73328 3.31138 5.68029 3.33333 5.62504 3.33333H1.66671C1.44569 3.33333 1.23373 3.42113 1.07745 3.57741C0.921171 3.73369 0.833374 3.94565 0.833374 4.16667C0.833374 4.38768 0.921171 4.59964 1.07745 4.75592C1.23373 4.9122 1.44569 5 1.66671 5H18.3334C18.5544 5 18.7663 4.9122 18.9226 4.75592C19.0789 4.59964 19.1667 4.38768 19.1667 4.16667C19.1667 3.94565 19.0789 3.73369 18.9226 3.57741C18.7663 3.42113 18.5544 3.33333 18.3334 3.33333ZM7.50004 3.125V2.08333C7.50004 1.97283 7.54394 1.86685 7.62208 1.78871C7.70022 1.71057 7.8062 1.66667 7.91671 1.66667H12.0834C12.1939 1.66667 12.2999 1.71057 12.378 1.78871C12.4561 1.86685 12.5 1.97283 12.5 2.08333V3.125C12.5 3.18025 12.4781 3.23324 12.439 3.27231C12.4 3.31138 12.347 3.33333 12.2917 3.33333H7.70837C7.65312 3.33333 7.60013 3.31138 7.56106 3.27231C7.52199 3.23324 7.50004 3.18025 7.50004 3.125Z" fill="white"/>
</svg>